<svg width="1440" height="900" viewBox="0 0 1440 900" fill="none" xmlns="http://www.w3.org/2000/svg">
  <path d="M1440 0H0V900H1440V0Z" fill="#F0F7FF"/>
  <path d="M200 200C150 200 120 230 120 280C120 330 150 360 200 360C250 360 280 330 280 280C280 230 250 200 200 200Z" fill="#E6F0FF" fill-opacity="0.5"/>
  <path d="M400 100C350 100 320 130 320 180C320 230 350 260 400 260C450 260 480 230 480 180C480 130 450 100 400 100Z" fill="#E6F0FF" fill-opacity="0.5"/>
  <path d="M1000 150C950 150 920 180 920 230C920 280 950 310 1000 310C1050 310 1080 280 1080 230C1080 180 1050 150 1000 150Z" fill="#E6F0FF" fill-opacity="0.5"/>
  <path d="M1200 250C1150 250 1120 280 1120 330C1120 380 1150 410 1200 410C1250 410 1280 380 1280 330C1280 280 1250 250 1200 250Z" fill="#E6F0FF" fill-opacity="0.5"/>
</svg> 